<svg version="1.1" xmlns="http://www.w3.org/2000/svg" xmlns:xlink="http://www.w3.org/1999/xlink" width="430.76275" height="165.05105" viewBox="0,0,430.76275,165.05105"><g transform="translate(-104.61862,-97.47447)"><g stroke="none" stroke-miterlimit="10"><path d="M108.4123,259.62989c0,0 -3.79368,-2.9057 -3.79368,-11.22057c0,-33.33054 0,-117.95807 0,-136.81863c0,-7.20683 4.33563,-10.49667 4.33563,-10.49667c0,0 0.713,-3.61954 7.4321,-3.61954c36.35948,0 351.36299,0 409.7169,0c5.99221,0 6.56836,2.89563 6.56836,2.89563c0,0 2.70976,1.90459 2.70976,9.77276c0,30.82671 0,108.74621 0,129.57956c0,9.68487 -2.16781,17.73575 -2.16781,17.73575c0,0 -0.84947,5.06735 -13.61377,5.06735c-79.25787,0 -371.49215,0 -403.21346,0c-5.56044,0 -7.97405,-2.89563 -7.97405,-2.89563z" fill-opacity="0.30588" fill="#000000" stroke-width="0"/><text transform="translate(121.89714,208.97962) scale(2.41497,2.41497)" font-size="40" xml:space="preserve" fill-opacity="0.82353" fill="#ffffff" stroke-width="1" font-family="&quot;GNF&quot;, Sans Serif" font-weight="normal" text-anchor="start"><tspan x="0" dy="0">НОВОСТИ</tspan></text></g></g></svg>