<svg version="1.1" xmlns="http://www.w3.org/2000/svg" xmlns:xlink="http://www.w3.org/1999/xlink" width="1212.28734" height="1084.51907" viewBox="0,0,1212.28734,1084.51907"><defs><linearGradient x1="204.40972" y1="195.01501" x2="684.8902" y2="195.01501" gradientUnits="userSpaceOnUse" id="color-1"><stop offset="0" stop-color="#2a34af" stop-opacity="0"/><stop offset="1" stop-color="#2a34af"/></linearGradient><linearGradient x1="205.43062" y1="117.43301" x2="204.37981" y2="597.91234" gradientUnits="userSpaceOnUse" id="color-2"><stop offset="0" stop-color="#2a34af" stop-opacity="0"/><stop offset="1" stop-color="#2a34af"/></linearGradient><radialGradient cx="364.62234" cy="199.5582" r="483.12084" gradientUnits="userSpaceOnUse" id="color-3"><stop offset="0" stop-color="#2a35b0" stop-opacity="0.39608"/><stop offset="1" stop-color="#2a35b0" stop-opacity="0"/></radialGradient><linearGradient x1="115.93633" y1="-82.24812" x2="-364.54415" y2="-82.24812" gradientUnits="userSpaceOnUse" id="color-4"><stop offset="0" stop-color="#2a34af" stop-opacity="0"/><stop offset="1" stop-color="#2a34af"/></linearGradient><linearGradient x1="114.91543" y1="-4.66612" x2="115.96624" y2="-485.14545" gradientUnits="userSpaceOnUse" id="color-5"><stop offset="0" stop-color="#2a34af" stop-opacity="0"/><stop offset="1" stop-color="#2a34af"/></linearGradient></defs><g transform="translate(364.54415,485.87609)"><g stroke="none" stroke-width="0" stroke-miterlimit="10"><path d="M204.40972,529.0991v-668.16817h480.48048v668.16817z" fill="url(#color-1)"/><path d="M-128.65266,116.70237l668.16657,1.46128l-1.05081,480.47933l-668.16657,-1.46128z" fill="url(#color-2)"/><path d="M847.74319,199.5582c0,198.87993 -216.30057,360.10396 -483.12084,360.10396c-266.82027,0 -483.12084,-161.22403 -483.12084,-360.10396c0,-198.87993 216.30057,-360.10396 483.12084,-360.10396c266.82027,0 483.12084,161.22403 483.12084,360.10396z" fill="url(#color-3)"/><path d="M115.93633,-416.33221v668.16817h-480.48048v-668.16817z" fill="url(#color-4)"/><path d="M448.99871,-3.93548l-668.16657,-1.46128l1.05081,-480.47933l668.16657,1.46128z" fill="url(#color-5)"/></g></g></svg>