<svg version="1.1" xmlns="http://www.w3.org/2000/svg" xmlns:xlink="http://www.w3.org/1999/xlink" width="398.24233" height="114" viewBox="0,0,398.24233,114"><g transform="translate(-41.29166,-123)"><g stroke="none" stroke-miterlimit="10"><path d="M44.79894,235c0,0 -3.50727,-2.00695 -3.50727,-7.75c0,-23.02125 0,-81.4731 0,-94.5c0,-4.97772 4.00831,-7.25 4.00831,-7.25c0,0 0.65917,-2.5 6.87102,-2.5c33.61452,0 324.83684,0 378.78532,0c5.53984,0 6.07249,2 6.07249,2c0,0 2.5052,1.31549 2.5052,6.75c0,21.29187 0,75.11051 0,89.5c0,6.6893 -2.00415,12.25 -2.00415,12.25c0,0 -0.78534,3.5 -12.586,3.5c-73.2743,0 -343.44634,0 -372.77285,0c-5.14066,0 -7.37205,-2 -7.37205,-2z" fill-opacity="0.30588" fill="#000000" stroke-width="0"/><text transform="translate(64.9032,193.97136) scale(1.16428,1.16428)" font-size="40" xml:space="preserve" fill="#ffffff" stroke-width="1" font-family="&quot;GNF&quot;, Sans Serif" font-weight="normal" text-anchor="start"><tspan x="0" dy="0">Скачать RuMeet</tspan></text></g></g></svg>