<svg version="1.1" xmlns="http://www.w3.org/2000/svg" xmlns:xlink="http://www.w3.org/1999/xlink" width="526.76895" height="450.03678" viewBox="0,0,526.76895,450.03678"><g transform="translate(12.80648,42.97962)"><g fill-opacity="0.3451" fill="#ffffff" stroke="none" stroke-width="0.5" stroke-miterlimit="10"><g><g><g><path d="M38.74156,2.56757c0,-1.38071 1.11929,-2.5 2.5,-2.5c1.38071,0 2.5,1.11929 2.5,2.5c0,1.38071 -1.11929,2.5 -2.5,2.5c-1.38071,0 -2.5,-1.11929 -2.5,-2.5z"/><path d="M142.84066,7.56757c0,-1.38071 1.11929,-2.5 2.5,-2.5c1.38071,0 2.5,1.11929 2.5,2.5c0,1.38071 -1.11929,2.5 -2.5,2.5c-1.38071,0 -2.5,-1.11929 -2.5,-2.5z"/></g><g><path d="M75.97807,34.00851c0.16732,-1.37053 1.414,-2.34594 2.78453,-2.17862c1.37053,0.16732 2.34594,1.414 2.17862,2.78453c-0.16732,1.37053 -1.414,2.34594 -2.78454,2.17862c-1.37053,-0.16732 -2.34593,-1.414 -2.17861,-2.78453z"/><path d="M178.70405,51.58677c0.16732,-1.37053 1.414,-2.34594 2.78454,-2.17862c1.37053,0.16732 2.34593,1.414 2.17861,2.78453c-0.16732,1.37053 -1.414,2.34594 -2.78453,2.17862c-1.37053,-0.16732 -2.34594,-1.414 -2.17862,-2.78453z"/></g></g><g><g><path d="M229.30059,-42.62465c1.18487,-0.70883 2.72003,-0.32291 3.42885,0.86196c0.70883,1.18487 0.32291,2.72003 -0.86196,3.42885c-1.18487,0.70883 -2.72003,0.32291 -3.42885,-0.86196c-0.70883,-1.18487 -0.32291,-2.72003 0.86196,-3.42885z"/><path d="M278.45193,49.27622c1.18487,-0.70883 2.72003,-0.32291 3.42885,0.86196c0.70883,1.18487 0.32291,2.72003 -0.86196,3.42885c-1.18487,0.70883 -2.72003,0.32291 -3.42885,-0.86196c-0.70883,-1.18487 -0.32291,-2.72003 0.86196,-3.42885z"/></g><g><path d="M221.43554,5.47143c1.26204,-0.56001 2.73911,0.00909 3.29912,1.27113c0.56001,1.26204 -0.00909,2.73911 -1.27113,3.29913c-1.26204,0.56001 -2.73912,-0.0091 -3.29913,-1.27113c-0.56001,-1.26204 0.0091,-2.73911 1.27113,-3.29912z"/><path d="M259.08775,102.65132c1.26204,-0.56001 2.73911,0.0091 3.29912,1.27113c0.56001,1.26204 -0.00909,2.73911 -1.27113,3.29912c-1.26204,0.56001 -2.73911,-0.00909 -3.29913,-1.27113c-0.56001,-1.26204 0.00909,-2.73912 1.27113,-3.29913z"/></g></g></g><g><g><g><path d="M18.38972,74.77888c0.48526,-1.29263 1.92653,-1.94712 3.21916,-1.46186c1.29263,0.48526 1.94712,1.92653 1.46186,3.21916c-0.48526,1.29263 -1.92653,1.94712 -3.21916,1.46186c-1.29263,-0.48526 -1.94712,-1.92653 -1.46186,-3.21916z"/><path d="M114.09037,116.04643c0.48526,-1.29263 1.92653,-1.94712 3.21916,-1.46186c1.29263,0.48526 1.94712,1.92653 1.46186,3.21916c-0.48526,1.29263 -1.92653,1.94712 -3.21916,1.46186c-1.29263,-0.48526 -1.94712,-1.92653 -1.46186,-3.21916z"/></g><g><path d="M42.2005,117.3011c0.63833,-1.22429 2.14829,-1.69931 3.37258,-1.06098c1.22429,0.63833 1.69931,2.14829 1.06098,3.37258c-0.63833,1.22429 -2.1483,1.69931 -3.37259,1.06098c-1.22429,-0.63833 -1.6993,-2.14829 -1.06097,-3.37258z"/><path d="M132.19487,169.86186c0.63833,-1.22429 2.1483,-1.69931 3.37258,-1.06098c1.22429,0.63833 1.69931,2.14829 1.06098,3.37258c-0.63833,1.22429 -2.14829,1.69931 -3.37258,1.06098c-1.22429,-0.63833 -1.69931,-2.1483 -1.06098,-3.37259z"/></g></g><g><g><path d="M212.67495,99.4434c1.35841,-0.24717 2.65999,0.65367 2.90716,2.01207c0.24717,1.35841 -0.65367,2.65999 -2.01207,2.90716c-1.35841,0.24717 -2.65999,-0.65366 -2.90716,-2.01207c-0.24717,-1.35841 0.65367,-2.65999 2.01208,-2.90716z"/><path d="M226.39124,202.75597c1.35841,-0.24717 2.65999,0.65367 2.90716,2.01208c0.24717,1.35841 -0.65367,2.65999 -2.01207,2.90716c-1.35841,0.24717 -2.65999,-0.65366 -2.90716,-2.01207c-0.24717,-1.35841 0.65366,-2.65999 2.01207,-2.90716z"/></g><g><path d="M188.40788,141.70687c1.37834,-0.08073 2.56117,0.9712 2.6419,2.34954c0.08073,1.37834 -0.9712,2.56117 -2.34954,2.6419c-1.37834,0.08073 -2.56118,-0.97121 -2.64191,-2.34955c-0.08073,-1.37834 0.9712,-2.56117 2.34955,-2.6419z"/><path d="M189.50328,245.92022c1.37834,-0.08073 2.56117,0.9712 2.6419,2.34954c0.08073,1.37834 -0.9712,2.56117 -2.34954,2.6419c-1.37834,0.08073 -2.56118,-0.9712 -2.64191,-2.34954c-0.08073,-1.37834 0.9712,-2.56117 2.34954,-2.6419z"/></g></g></g><g><g><g><path d="M270.46828,19.57958c0,-1.38071 1.11929,-2.5 2.5,-2.5c1.38071,0 2.5,1.11929 2.5,2.5c0,1.38071 -1.11929,2.5 -2.5,2.5c-1.38071,0 -2.5,-1.11929 -2.5,-2.5z"/><path d="M374.56738,24.57958c0,-1.38071 1.11929,-2.5 2.5,-2.5c1.38071,0 2.5,1.11929 2.5,2.5c0,1.38071 -1.11929,2.5 -2.5,2.5c-1.38071,0 -2.5,-1.11929 -2.5,-2.5z"/></g><g><path d="M307.7048,51.02053c0.16732,-1.37053 1.414,-2.34593 2.78453,-2.17861c1.37053,0.16732 2.34594,1.414 2.17862,2.78453c-0.16732,1.37053 -1.41401,2.34594 -2.78454,2.17862c-1.37053,-0.16732 -2.34593,-1.414 -2.17861,-2.78453z"/><path d="M410.43078,68.59879c0.16732,-1.37053 1.414,-2.34593 2.78454,-2.17861c1.37053,0.16732 2.34593,1.414 2.17861,2.78453c-0.16732,1.37053 -1.414,2.34594 -2.78453,2.17862c-1.37053,-0.16732 -2.34594,-1.41401 -2.17862,-2.78453z"/></g></g><g><g><path d="M461.02732,-25.61264c1.18488,-0.70882 2.72002,-0.32291 3.42885,0.86197c0.70882,1.18487 0.32291,2.72002 -0.86197,3.42885c-1.18487,0.70883 -2.72002,0.32292 -3.42885,-0.86196c-0.70883,-1.18488 -0.32291,-2.72003 0.86196,-3.42886z"/><path d="M510.17865,66.28823c1.18487,-0.70882 2.72003,-0.32291 3.42885,0.86196c0.70882,1.18488 0.32291,2.72003 -0.86197,3.42885c-1.18487,0.70882 -2.72002,0.32292 -3.42885,-0.86196c-0.70882,-1.18487 -0.32291,-2.72003 0.86196,-3.42885z"/></g><g><path d="M453.16227,22.48344c1.26203,-0.56001 2.73911,0.0091 3.29912,1.27113c0.56001,1.26203 -0.00909,2.73911 -1.27112,3.29912c-1.26203,0.56001 -2.73912,-0.0091 -3.29913,-1.27113c-0.56001,-1.26203 0.0091,-2.73911 1.27114,-3.29912z"/><path d="M490.81447,119.66334c1.26203,-0.56001 2.73911,0.0091 3.29913,1.27113c0.56001,1.26203 -0.00909,2.73911 -1.27112,3.29913c-1.26204,0.56001 -2.73912,-0.0091 -3.29913,-1.27113c-0.56001,-1.26203 0.0091,-2.73911 1.27113,-3.29913z"/></g></g></g><g><g><g><path d="M250.11646,91.7909c0.48527,-1.29262 1.92653,-1.94713 3.21916,-1.46187c1.29263,0.48526 1.94712,1.92654 1.46186,3.21916c-0.48526,1.29262 -1.92653,1.94712 -3.21916,1.46186c-1.29262,-0.48526 -1.94712,-1.92653 -1.46186,-3.21916z"/><path d="M345.8171,133.05845c0.48526,-1.29262 1.92653,-1.94713 3.21916,-1.46187c1.29262,0.48526 1.94713,1.92653 1.46187,3.21916c-0.48527,1.29262 -1.92653,1.94713 -3.21916,1.46187c-1.29263,-0.48526 -1.94713,-1.92653 -1.46187,-3.21916z"/></g><g><path d="M273.92722,134.31311c0.63833,-1.22429 2.14829,-1.69931 3.37258,-1.06098c1.22429,0.63833 1.69931,2.14829 1.06098,3.37258c-0.63833,1.22429 -2.1483,1.69931 -3.37259,1.06098c-1.22429,-0.63833 -1.69931,-2.14829 -1.06098,-3.37258z"/><path d="M363.9216,186.87388c0.63833,-1.22429 2.1483,-1.69931 3.37259,-1.06098c1.22429,0.63833 1.69931,2.14829 1.06098,3.37258c-0.63833,1.22429 -2.14829,1.69931 -3.37258,1.06098c-1.22429,-0.63833 -1.69932,-2.14829 -1.06099,-3.37258z"/></g></g><g><g><path d="M444.40168,116.45542c1.3584,-0.24717 2.65999,0.65366 2.90716,2.01207c0.24717,1.35841 -0.65367,2.65999 -2.01207,2.90716c-1.3584,0.24717 -2.65999,-0.65366 -2.90716,-2.01207c-0.24717,-1.35841 0.65367,-2.65999 2.01207,-2.90716z"/><path d="M458.11796,219.76798c1.3584,-0.24717 2.65999,0.65368 2.90716,2.01208c0.24717,1.35841 -0.65366,2.65999 -2.01207,2.90716c-1.3584,0.24717 -2.65999,-0.65366 -2.90716,-2.01207c-0.24717,-1.3584 0.65366,-2.66 2.01207,-2.90717z"/></g><g><path d="M420.13461,158.71888c1.37834,-0.08073 2.56117,0.9712 2.64189,2.34954c0.08073,1.37834 -0.97119,2.56117 -2.34953,2.6419c-1.37834,0.08073 -2.56118,-0.97121 -2.64191,-2.34955c-0.08073,-1.37834 0.97121,-2.56117 2.34955,-2.6419z"/><path d="M421.23001,262.93223c1.37834,-0.08073 2.56117,0.9712 2.6419,2.34954c0.08073,1.37834 -0.97119,2.56118 -2.34953,2.64191c-1.37834,0.08073 -2.56118,-0.97121 -2.64191,-2.34955c-0.08073,-1.37834 0.9712,-2.56117 2.34954,-2.6419z"/></g></g></g><g><g><g><path d="M223.58493,119.31342c0.48526,-1.29262 1.92653,-1.94713 3.21916,-1.46186c1.29262,0.48526 1.94712,1.92654 1.46186,3.21916c-0.48526,1.29262 -1.92653,1.94712 -3.21916,1.46186c-1.29262,-0.48526 -1.94712,-1.92653 -1.46186,-3.21916z"/><path d="M319.28556,160.58097c0.48527,-1.29262 1.92653,-1.94713 3.21916,-1.46186c1.29262,0.48526 1.94713,1.92653 1.46186,3.21916c-0.48527,1.29262 -1.92653,1.94713 -3.21916,1.46186c-1.29262,-0.48526 -1.94713,-1.92653 -1.46186,-3.21916z"/></g><g><path d="M247.39569,161.83563c0.63833,-1.22429 2.14829,-1.69931 3.37258,-1.06098c1.22429,0.63833 1.69932,2.14829 1.06099,3.37258c-0.63833,1.22429 -2.1483,1.69931 -3.37259,1.06098c-1.22429,-0.63833 -1.69931,-2.14829 -1.06098,-3.37258z"/><path d="M337.39006,214.3964c0.63833,-1.22429 2.14829,-1.69931 3.37258,-1.06098c1.22429,0.63833 1.69931,2.14829 1.06098,3.37258c-0.63833,1.22429 -2.14829,1.69931 -3.37258,1.06098c-1.22429,-0.63833 -1.69931,-2.1483 -1.06098,-3.37258z"/></g></g><g><g><path d="M417.87014,143.97794c1.35841,-0.24717 2.65999,0.65366 2.90716,2.01207c0.24717,1.35841 -0.65367,2.65999 -2.01207,2.90716c-1.35841,0.24717 -2.65999,-0.65366 -2.90716,-2.01207c-0.24717,-1.35841 0.65367,-2.65999 2.01208,-2.90716z"/><path d="M431.58643,247.2905c1.35841,-0.24717 2.65999,0.65367 2.90716,2.01208c0.24717,1.35841 -0.65366,2.65999 -2.01207,2.90716c-1.35841,0.24717 -2.65999,-0.65367 -2.90716,-2.01207c-0.24717,-1.35841 0.65366,-2.66 2.01207,-2.90717z"/></g><g><path d="M393.60307,186.2414c1.37834,-0.08073 2.56116,0.9712 2.64189,2.34954c0.08073,1.37834 -0.9712,2.56117 -2.34954,2.6419c-1.37834,0.08073 -2.56118,-0.97121 -2.64191,-2.34955c-0.08073,-1.37834 0.97121,-2.56117 2.34955,-2.6419z"/><path d="M394.69847,290.45475c1.37834,-0.08073 2.56117,0.9712 2.6419,2.34954c0.08073,1.37834 -0.9712,2.56117 -2.34954,2.64191c-1.37834,0.08073 -2.56117,-0.9712 -2.64191,-2.34954c-0.08073,-1.37834 0.9712,-2.56117 2.34954,-2.64191z"/></g></g></g><g><g><g><path d="M7.70552,114.17418c0,-1.38071 1.11929,-2.5 2.5,-2.5c1.38071,0 2.5,1.11929 2.5,2.5c0,1.38071 -1.11929,2.5 -2.5,2.5c-1.38071,0 -2.5,-1.11929 -2.5,-2.5z"/><path d="M111.80462,119.17418c0,-1.38071 1.11929,-2.5 2.5,-2.5c1.38071,0 2.5,1.11929 2.5,2.5c0,1.38071 -1.11929,2.5 -2.5,2.5c-1.38071,0 -2.5,-1.11929 -2.5,-2.5z"/></g><g><path d="M44.94204,145.61512c0.16732,-1.37053 1.414,-2.34594 2.78453,-2.17862c1.37053,0.16732 2.34594,1.41401 2.17862,2.78454c-0.16732,1.37053 -1.41401,2.34593 -2.78454,2.17862c-1.37053,-0.16732 -2.34593,-1.414 -2.17861,-2.78453z"/><path d="M147.66801,163.19338c0.16732,-1.37053 1.41401,-2.34594 2.78454,-2.17862c1.37053,0.16732 2.34593,1.41401 2.17862,2.78454c-0.16732,1.37053 -1.414,2.34593 -2.78453,2.17862c-1.37053,-0.16732 -2.34594,-1.414 -2.17862,-2.78453z"/></g></g><g><g><path d="M198.26456,68.98196c1.18488,-0.70882 2.72003,-0.32291 3.42885,0.86197c0.70882,1.18488 0.32291,2.72003 -0.86196,3.42885c-1.18488,0.70883 -2.72003,0.32291 -3.42885,-0.86196c-0.70882,-1.18488 -0.32291,-2.72003 0.86196,-3.42885z"/><path d="M247.41589,160.88282c1.18488,-0.70882 2.72003,-0.32291 3.42886,0.86196c0.70882,1.18488 0.32291,2.72003 -0.86197,3.42885c-1.18488,0.70882 -2.72003,0.32291 -3.42885,-0.86197c-0.70883,-1.18488 -0.32291,-2.72003 0.86196,-3.42885z"/></g><g><path d="M190.3995,117.07803c1.26203,-0.56001 2.73911,0.0091 3.29912,1.27113c0.56001,1.26204 -0.00909,2.73912 -1.27112,3.29913c-1.26203,0.56001 -2.73912,-0.0091 -3.29913,-1.27114c-0.56001,-1.26204 0.0091,-2.73911 1.27114,-3.29912z"/><path d="M228.05171,214.25793c1.26203,-0.56001 2.73911,0.0091 3.29913,1.27113c0.56001,1.26203 -0.00909,2.73911 -1.27113,3.29912c-1.26204,0.56001 -2.73912,-0.00909 -3.29913,-1.27113c-0.56001,-1.26203 0.0091,-2.73912 1.27113,-3.29913z"/></g></g></g><g><g><g><path d="M-12.64631,186.38549c0.48526,-1.29263 1.92653,-1.94713 3.21915,-1.46187c1.29263,0.48526 1.94712,1.92653 1.46186,3.21916c-0.48526,1.29263 -1.92653,1.94713 -3.21916,1.46187c-1.29262,-0.48526 -1.94712,-1.92653 -1.46186,-3.21916z"/><path d="M83.05433,227.65304c0.48526,-1.29263 1.92653,-1.94713 3.21916,-1.46187c1.29263,0.48526 1.94713,1.92653 1.46187,3.21916c-0.48526,1.29263 -1.92653,1.94713 -3.21916,1.46187c-1.29263,-0.48526 -1.94713,-1.92653 -1.46187,-3.21916z"/></g><g><path d="M11.16446,228.90771c0.63833,-1.22429 2.14829,-1.69931 3.37258,-1.06098c1.22429,0.63833 1.69931,2.1483 1.06098,3.37259c-0.63833,1.22429 -2.1483,1.69931 -3.37259,1.06098c-1.22429,-0.63833 -1.69931,-2.1483 -1.06098,-3.37259z"/><path d="M101.15883,281.46847c0.63833,-1.22429 2.1483,-1.69931 3.37259,-1.06098c1.22429,0.63833 1.69931,2.14829 1.06098,3.37258c-0.63833,1.22429 -2.14829,1.69932 -3.37258,1.06099c-1.22429,-0.63833 -1.69932,-2.14829 -1.06099,-3.37258z"/></g></g><g><g><path d="M181.63891,211.05001c1.35841,-0.24717 2.65999,0.65367 2.90716,2.01207c0.24717,1.35841 -0.65367,2.65998 -2.01208,2.90715c-1.35841,0.24717 -2.65999,-0.65366 -2.90716,-2.01207c-0.24717,-1.35841 0.65367,-2.65999 2.01207,-2.90716z"/><path d="M195.3552,314.36257c1.35841,-0.24717 2.65999,0.65367 2.90716,2.01207c0.24717,1.3584 -0.65366,2.65998 -2.01207,2.90715c-1.35841,0.24717 -2.65999,-0.65366 -2.90716,-2.01207c-0.24717,-1.3584 0.65366,-2.65999 2.01207,-2.90716z"/></g><g><path d="M157.37184,253.31348c1.37834,-0.08073 2.56117,0.9712 2.6419,2.34954c0.08073,1.37834 -0.97119,2.56118 -2.34954,2.64191c-1.37834,0.08073 -2.56118,-0.97121 -2.64191,-2.34955c-0.08073,-1.37834 0.97121,-2.56116 2.34955,-2.64189z"/><path d="M158.46723,357.52682c1.37834,-0.08073 2.56117,0.9712 2.6419,2.34954c0.08073,1.37834 -0.97119,2.56117 -2.34954,2.6419c-1.37834,0.08073 -2.56118,-0.9712 -2.64191,-2.34954c-0.08073,-1.37834 0.9712,-2.56117 2.34954,-2.6419z"/></g></g></g><g><g><g><path d="M239.43224,131.18619c0,-1.38071 1.11929,-2.5 2.5,-2.5c1.38071,0 2.5,1.11929 2.5,2.5c0,1.38071 -1.11929,2.5 -2.5,2.5c-1.38071,0 -2.5,-1.11929 -2.5,-2.5z"/><path d="M343.53134,136.18619c0,-1.38071 1.11929,-2.5 2.5,-2.5c1.38071,0 2.5,1.11929 2.5,2.5c0,1.38071 -1.11929,2.5 -2.5,2.5c-1.38071,0 -2.5,-1.11929 -2.5,-2.5z"/></g><g><path d="M276.66875,162.62713c0.16732,-1.37053 1.414,-2.34594 2.78453,-2.17862c1.37053,0.16732 2.34594,1.414 2.17862,2.78453c-0.16732,1.37053 -1.41401,2.34594 -2.78454,2.17862c-1.37053,-0.16732 -2.34593,-1.41401 -2.17861,-2.78454z"/><path d="M379.39474,180.20539c0.16732,-1.37053 1.41401,-2.34593 2.78454,-2.17862c1.37053,0.16732 2.34594,1.414 2.17862,2.78453c-0.16732,1.37053 -1.414,2.34594 -2.78453,2.17862c-1.37053,-0.16732 -2.34594,-1.41401 -2.17862,-2.78454z"/></g></g><g><g><path d="M429.99128,85.99397c1.18487,-0.70883 2.72003,-0.32291 3.42885,0.86196c0.70882,1.18488 0.32291,2.72003 -0.86196,3.42885c-1.18487,0.70883 -2.72003,0.32292 -3.42885,-0.86196c-0.70882,-1.18488 -0.32291,-2.72003 0.86196,-3.42886z"/><path d="M479.14261,177.89483c1.18487,-0.70882 2.72003,-0.32291 3.42885,0.86197c0.70883,1.18487 0.32291,2.72002 -0.86196,3.42885c-1.18487,0.70883 -2.72003,0.32291 -3.42885,-0.86196c-0.70882,-1.18487 -0.32291,-2.72003 0.86196,-3.42885z"/></g><g><path d="M422.12623,134.09004c1.26204,-0.56001 2.73911,0.0091 3.29912,1.27113c0.56001,1.26203 -0.00909,2.73911 -1.27112,3.29913c-1.26204,0.56001 -2.73912,-0.0091 -3.29913,-1.27114c-0.56001,-1.26203 0.0091,-2.73911 1.27114,-3.29912z"/><path d="M459.77843,231.26994c1.26204,-0.56001 2.73912,0.0091 3.29913,1.27113c0.56001,1.26203 -0.00909,2.73911 -1.27112,3.29913c-1.26204,0.56001 -2.73912,-0.0091 -3.29913,-1.27113c-0.56001,-1.26203 0.00909,-2.73911 1.27113,-3.29913z"/></g></g></g><g><g><g><path d="M219.08042,203.3975c0.48526,-1.29263 1.92653,-1.94713 3.21916,-1.46187c1.29262,0.48526 1.94712,1.92654 1.46186,3.21916c-0.48526,1.29262 -1.92653,1.94712 -3.21916,1.46186c-1.29262,-0.48526 -1.94712,-1.92653 -1.46186,-3.21916z"/><path d="M314.78105,244.66505c0.48527,-1.29262 1.92653,-1.94713 3.21916,-1.46186c1.29262,0.48526 1.94713,1.92653 1.46186,3.21915c-0.48527,1.29262 -1.92653,1.94713 -3.21916,1.46187c-1.29262,-0.48526 -1.94713,-1.92653 -1.46186,-3.21916z"/></g><g><path d="M242.89118,245.91972c0.63833,-1.22429 2.14829,-1.69931 3.37258,-1.06098c1.22429,0.63833 1.69932,2.1483 1.06099,3.37259c-0.63833,1.22429 -2.1483,1.69931 -3.37259,1.06098c-1.22429,-0.63833 -1.69931,-2.1483 -1.06098,-3.37259z"/><path d="M332.88556,298.48048c0.63833,-1.22429 2.14829,-1.69931 3.37258,-1.06098c1.22429,0.63833 1.69931,2.14829 1.06098,3.37258c-0.63833,1.22429 -2.14829,1.69932 -3.37258,1.06099c-1.22429,-0.63833 -1.69931,-2.14829 -1.06098,-3.37258z"/></g></g><g><g><path d="M413.36564,228.06202c1.35841,-0.24717 2.65999,0.65366 2.90716,2.01207c0.24717,1.35841 -0.65367,2.65999 -2.01207,2.90716c-1.35841,0.24717 -2.65999,-0.65366 -2.90716,-2.01207c-0.24717,-1.35841 0.65367,-2.65999 2.01208,-2.90716z"/><path d="M427.08192,331.37458c1.35841,-0.24717 2.65999,0.65367 2.90716,2.01208c0.24717,1.35841 -0.65366,2.65998 -2.01207,2.90715c-1.35841,0.24717 -2.65999,-0.65366 -2.90716,-2.01207c-0.24717,-1.3584 0.65366,-2.65999 2.01207,-2.90716z"/></g><g><path d="M389.09857,270.32549c1.37834,-0.08073 2.56116,0.9712 2.64189,2.34954c0.08073,1.37834 -0.9712,2.56117 -2.34954,2.6419c-1.37834,0.08073 -2.56118,-0.97121 -2.64191,-2.34955c-0.08073,-1.37834 0.97121,-2.56116 2.34955,-2.64189z"/><path d="M390.19397,374.53883c1.37834,-0.08073 2.56117,0.9712 2.6419,2.34954c0.08073,1.37834 -0.9712,2.56117 -2.34954,2.64191c-1.37834,0.08073 -2.56117,-0.9712 -2.64191,-2.34954c-0.08073,-1.37834 0.9712,-2.56117 2.34954,-2.64191z"/></g></g></g><g><g><g><path d="M192.54889,230.92002c0.48526,-1.29262 1.92653,-1.94713 3.21915,-1.46186c1.29262,0.48526 1.94712,1.92654 1.46186,3.21916c-0.48526,1.29263 -1.92653,1.94712 -3.21916,1.46186c-1.29262,-0.48526 -1.94712,-1.92653 -1.46186,-3.21916z"/><path d="M288.24953,272.18757c0.48527,-1.29262 1.92653,-1.94713 3.21916,-1.46186c1.29262,0.48527 1.94713,1.92653 1.46186,3.21915c-0.48527,1.29262 -1.92653,1.94713 -3.21916,1.46186c-1.29262,-0.48527 -1.94713,-1.92653 -1.46186,-3.21915z"/></g><g><path d="M216.35965,273.44224c0.63833,-1.22429 2.14829,-1.69931 3.37258,-1.06098c1.22429,0.63833 1.69931,2.14829 1.06098,3.37258c-0.63833,1.22429 -2.1483,1.69931 -3.37259,1.06098c-1.22429,-0.63833 -1.6993,-2.14829 -1.06097,-3.37258z"/><path d="M306.35402,326.003c0.63833,-1.22429 2.1483,-1.69931 3.37259,-1.06098c1.22429,0.63833 1.69931,2.14829 1.06098,3.37258c-0.63833,1.22429 -2.14829,1.69931 -3.37258,1.06098c-1.22429,-0.63833 -1.69932,-2.14829 -1.06099,-3.37258z"/></g></g><g><g><path d="M386.83411,255.58454c1.35841,-0.24717 2.65999,0.65366 2.90716,2.01207c0.24717,1.35841 -0.65367,2.65999 -2.01208,2.90716c-1.35841,0.24717 -2.65999,-0.65366 -2.90716,-2.01207c-0.24717,-1.35841 0.65367,-2.65999 2.01207,-2.90716z"/><path d="M400.55039,358.8971c1.35841,-0.24717 2.65999,0.65368 2.90716,2.01208c0.24717,1.35841 -0.65366,2.65998 -2.01207,2.90715c-1.35841,0.24717 -2.65999,-0.65366 -2.90716,-2.01207c-0.24717,-1.3584 0.65366,-2.65999 2.01207,-2.90716z"/></g><g><path d="M362.56704,297.84801c1.37834,-0.08073 2.56117,0.9712 2.6419,2.34954c0.08073,1.37834 -0.9712,2.56117 -2.34954,2.64191c-1.37834,0.08073 -2.56118,-0.97121 -2.64191,-2.34955c-0.08073,-1.37834 0.97121,-2.56116 2.34955,-2.64189z"/><path d="M363.66244,402.06135c1.37834,-0.08073 2.56117,0.9712 2.6419,2.34954c0.08073,1.37834 -0.9712,2.56117 -2.34954,2.64191c-1.37834,0.08073 -2.56117,-0.9712 -2.64191,-2.34954c-0.08073,-1.37834 0.9712,-2.56117 2.34954,-2.64191z"/></g></g></g></g></g></svg>